<svg id="Capa_1" enable-background="new 0 0 512 512" height="512" viewBox="0 0 512 512" width="512" xmlns="http://www.w3.org/2000/svg" xmlns:xlink="http://www.w3.org/1999/xlink"><linearGradient id="SVGID_1_" gradientUnits="userSpaceOnUse" x1="256" x2="256" y1="451" y2="61"><stop offset="0" stop-color="#a93aff"/><stop offset="1" stop-color="#ff81ff"/></linearGradient><linearGradient id="SVGID_2_" gradientUnits="userSpaceOnUse" x1="346" x2="346" y1="391" y2="91"><stop offset="0" stop-color="#ffbef9"/><stop offset="1" stop-color="#fff1ff"/></linearGradient><g><g><g><path d="m156.273 361h-111.273c-8.291 0-15 6.709-15 15s6.709 15 15 15h111.273c8.291 0 15-6.709 15-15s-6.709-15-15-15zm-5.273-75c0-8.291-6.709-15-15-15h-121c-8.291 0-15 6.709-15 15s6.709 15 15 15h121c8.291 0 15-6.709 15-15zm5.273-105h-111.273c-8.291 0-15 6.709-15 15s6.709 15 15 15h111.273c8.291 0 15-6.709 15-15s-6.709-15-15-15zm204.727-59.24c-2.001-.181-4.008-5.281-6.024-11.248l6.024-19.512h15c8.291 0 15-6.709 15-15s-6.709-15-15-15h-60c-8.291 0-15 6.709-15 15s6.709 15 15 15h15l6.486 18.124c-2.172 6.548-4.332 12.44-6.486 12.636-83.958 7.615-150 78.323-150 164.24 0 90.981 74.033 165 165 165s166-74.019 166-165c0-85.917-67.042-156.625-151-164.24z" fill="url(#SVGID_1_)"/></g></g><g><g><path d="m436 271h-75v-75c0-8.291-6.709-15-15-15-57.891 0-105 47.109-105 105s47.109 105 105 105 105-47.109 105-105c0-8.291-6.709-15-15-15zm-75-149.24v-30.76h-30v30.76c4.948-.449 9.937-.76 15-.76s10.052.311 15 .76z" fill="url(#SVGID_2_)"/></g></g></g></svg>